<?xml version="1.0" standalone="no"?>
<!DOCTYPE svg PUBLIC "-//W3C//DTD SVG 20010904//EN"
 "http://www.w3.org/TR/2001/REC-SVG-20010904/DTD/svg10.dtd">
<svg version="1.0" xmlns="http://www.w3.org/2000/svg"
 width="256.000000pt" height="256.000000pt" viewBox="0 0 256.000000 256.000000"
 preserveAspectRatio="xMidYMid meet">
<metadata>
Created by potrace 1.11, written by Peter Selinger 2001-2013
</metadata>
<g transform="translate(0.000000,256.000000) scale(0.100000,-0.100000)"
fill="#000000" stroke="none">
<path d="M1297 2358 c-15 -33 -35 -142 -39 -210 l-2 -38 -47 0 c-29 0 -51 6
-59 15 -7 8 -10 15 -6 15 8 0 -42 78 -71 110 -13 14 -23 28 -23 33 0 4 -9 17
-20 29 -11 12 -20 27 -20 34 0 21 -29 24 -40 5 -13 -25 -38 -184 -46 -291 -8
-110 -23 -129 -80 -98 -22 11 -55 30 -74 42 -58 36 -74 45 -90 52 -8 4 -106
61 -218 126 -112 65 -207 118 -213 118 -5 0 -9 4 -9 8 0 5 -16 14 -36 20 -28
8 -36 8 -40 -3 -6 -14 7 -44 28 -67 7 -7 35 -40 63 -73 27 -33 52 -62 55 -65
3 -3 28 -32 55 -65 28 -33 55 -65 60 -71 6 -6 29 -33 51 -60 23 -27 52 -61 65
-76 13 -14 31 -35 40 -47 8 -11 31 -37 50 -58 18 -21 47 -55 62 -75 l28 -38
-28 -37 c-15 -21 -34 -44 -40 -51 -7 -7 -13 -17 -13 -22 0 -5 -6 -15 -13 -22
-17 -20 -29 -39 -93 -163 -31 -60 -74 -136 -95 -167 -22 -32 -39 -62 -39 -68
0 -5 -4 -10 -9 -10 -5 0 -12 -8 -15 -18 -3 -9 -35 -53 -71 -97 -83 -101 -115
-167 -115 -236 0 -61 16 -123 42 -161 10 -14 18 -30 18 -35 0 -5 11 -20 25
-33 14 -13 25 -29 25 -35 0 -28 60 -77 111 -92 74 -21 94 -22 168 -6 67 14
110 36 216 107 153 103 223 126 384 126 64 0 133 4 153 9 26 6 40 5 47 -3 5
-6 23 -65 40 -131 35 -135 53 -177 94 -218 58 -58 138 -68 221 -28 23 12 45
21 49 21 7 0 95 58 113 75 7 5 26 21 44 35 58 46 73 60 64 61 -27 2 50 21 101
25 33 3 64 9 70 15 5 5 17 9 26 9 10 0 19 3 21 8 3 7 64 52 71 52 3 0 19 -24
36 -53 30 -48 100 -105 114 -91 3 3 1 20 -4 37 -16 54 -22 258 -10 317 6 30
13 71 16 90 7 42 8 187 2 215 -9 38 -18 120 -20 182 -1 34 -6 65 -10 69 -4 4
-7 20 -7 35 0 16 -4 38 -9 51 -12 29 -18 51 -19 62 0 5 -4 12 -9 15 -5 3 -20
23 -33 45 -12 21 -34 50 -47 65 -14 14 -48 53 -76 85 -29 33 -56 64 -62 70
-19 20 -65 85 -65 90 0 3 -18 32 -40 63 -124 180 -243 238 -500 247 -57 2 -64
4 -74 26 -6 14 -13 27 -16 30 -13 11 -51 70 -46 70 3 0 -1 8 -10 18 -8 9 -29
38 -46 65 -16 26 -33 47 -38 47 -4 0 -15 -15 -23 -32z"/>
</g>
</svg>
